<svg xmlns="http://www.w3.org/2000/svg" viewBox="0 0 12.07 12.07"><defs><style>.cls-1{fill-rule:evenodd;}</style></defs><title>insta</title><g id="Слой_2" data-name="Слой 2"><g id="Слой_1-2" data-name="Слой 1"><g id="logo"><path id="logo-2" data-name="logo" class="cls-1" d="M10.68,5.1H9.62a3.71,3.71,0,1,1-7.18,0H1.39v5.11a.46.46,0,0,0,.46.46h8.35a.46.46,0,0,0,.46-.46Zm0-3.25a.46.46,0,0,0-.46-.46H8.82a.46.46,0,0,0-.46.46V3.25a.46.46,0,0,0,.46.46h1.39a.46.46,0,0,0,.46-.46ZM6,3.71A2.32,2.32,0,1,0,8.35,6,2.32,2.32,0,0,0,6,3.71m4.64,8.35H1.39A1.39,1.39,0,0,1,0,10.67V1.39A1.39,1.39,0,0,1,1.39,0h9.28a1.39,1.39,0,0,1,1.39,1.39v9.28a1.39,1.39,0,0,1-1.39,1.39"/></g></g></g></svg>
